<?xml version="1.0" encoding="utf-8"?>
<!-- Generator: Adobe Illustrator 23.0.3, SVG Export Plug-In . SVG Version: 6.00 Build 0)  -->
<svg version="1.1" id="Layer_1" xmlns="http://www.w3.org/2000/svg" xmlns:xlink="http://www.w3.org/1999/xlink" x="0px" y="0px"
	 viewBox="0 0 612 792" style="enable-background:new 0 0 612 792;" xml:space="preserve">
<style type="text/css">
	.st0{fill:#C1617C;}
	.st1{fill:#1C6131;}
	.st2{fill:#EFDA33;}
	.st3{fill:#EDC87E;}
	.st4{fill:none;stroke:#000000;stroke-linejoin:round;stroke-miterlimit:10;}
	.st5{fill:none;stroke:#000000;stroke-miterlimit:10;}
	.st6{fill:none;stroke:#000000;stroke-linecap:round;stroke-miterlimit:10;}
	.st7{fill:none;stroke:#000000;stroke-width:0.5;stroke-miterlimit:10;}
</style>
<g>
	<g>
		
			<rect x="314.7" y="404.05" transform="matrix(-0.4067 0.9135 -0.9135 -0.4067 830.7374 279.945)" class="st0" width="19.54" height="11.34"/>
		
			<rect x="327" y="407.4" transform="matrix(-0.4067 0.9135 -0.9135 -0.4067 853.0439 276.412)" class="st1" width="19.54" height="15.59"/>
		
			<rect x="383.77" y="386.12" transform="matrix(-0.4067 0.9135 -0.9135 -0.4067 956.0006 260.1053)" class="st2" width="19.54" height="108.7"/>
		<path d="M455.09,468.66c0.12-0.28,0.3-0.46,0.51-0.58c-0.03-0.2,0-0.42,0.1-0.66c0.57-1.28,2.38-0.67,2.4,0.48
			c0.34,0.32,0.52,0.81,0.27,1.36c-0.25,0.55-0.73,0.75-1.19,0.71C456.37,470.98,454.49,470.02,455.09,468.66z"/>
		<path class="st3" d="M439.65,469.91c0.12-0.27,0.29-0.45,0.49-0.56c0.02-0.08,0.04-0.15,0.08-0.23c0.71-1.54,1.55-3.01,2.51-4.41
			c-0.22-0.39-0.24-0.89,0.11-1.34c0.23-0.3,0.47-0.61,0.7-0.92c0-0.03,0-0.05,0-0.08c0.08-1.07,0.48-1.72,1.03-2.62
			c0.54-0.89,0.88-1.95,1.28-2.91c0.13-0.31,0.33-0.5,0.56-0.62c-0.04-0.09-0.09-0.18-0.14-0.27c-0.68-1.46,1.65-2.35,2.33-0.9
			c0.53,1.13,1.11,2.22,1.75,3.29c0.24,0.05,0.48,0.18,0.69,0.4c1.91,2.06,3.28,4.63,4.77,6.99c0.4,0.63,0.17,1.28-0.27,1.66
			c-0.01,0.14-0.04,0.28-0.11,0.42c-0.06,0.15-0.15,0.26-0.24,0.36c0,0.17-0.03,0.35-0.12,0.53c-0.04,0.09-0.09,0.17-0.14,0.25
			c-0.01,0.12-0.04,0.25-0.1,0.38c-0.27,0.61-0.83,0.79-1.34,0.69c-0.04,0.01-0.08,0.03-0.13,0.04c-1.94,0.43-3.9,0.78-5.87,1.03
			c-0.33,0.04-0.61-0.04-0.82-0.18c-0.02,0-0.03,0.01-0.05,0.01c-1.59,0.19-3.17,0.42-4.75,0.63c-0.18,0.02-0.35,0.01-0.5-0.03
			C440.5,471.99,439.12,471.1,439.65,469.91z"/>
		
			<rect x="371.47" y="367.18" transform="matrix(-0.4067 0.9135 -0.9135 -0.4067 933.694 263.6383)" class="st4" width="19.54" height="135.63"/>
		<line class="st5" x1="447.17" y1="453.65" x2="459.2" y2="469.7"/>
		<line class="st6" x1="439.22" y1="471.5" x2="459.2" y2="469.7"/>
		<line class="st5" x1="333.62" y1="403.1" x2="325.68" y2="420.95"/>
		<line class="st5" x1="347.86" y1="409.44" x2="339.92" y2="427.29"/>
		<line class="st7" x1="456.44" y1="466.02" x2="454.64" y2="470.11"/>
		<line class="st7" x1="345.88" y1="413.9" x2="445.18" y2="458.11"/>
		<line class="st7" x1="341.9" y1="422.83" x2="441.21" y2="467.04"/>
	</g>
	<g>
		<rect x="160.46" y="319.42" class="st0" width="19.54" height="11.34"/>
		<rect x="160.46" y="330.76" class="st1" width="19.54" height="15.59"/>
		<rect x="160.46" y="346.35" class="st2" width="19.54" height="108.7"/>
		<path d="M170.96,468.4c-0.3,0-0.55,0.09-0.74,0.23c-0.17-0.11-0.39-0.17-0.64-0.17c-1.4,0-1.58,1.9-0.54,2.39
			c0.15,0.44,0.53,0.8,1.13,0.8c0.61,0,0.98-0.36,1.13-0.8C172.55,470.5,172.44,468.4,170.96,468.4z"/>
		<path class="st3" d="M178.38,454.8c-0.29,0-0.53,0.08-0.71,0.22c-0.08-0.01-0.16-0.02-0.25-0.02c-1.7,0.02-3.38,0.2-5.05,0.5
			c-0.27-0.36-0.71-0.58-1.27-0.45c-0.37,0.09-0.75,0.18-1.13,0.27c-0.02-0.01-0.04-0.02-0.07-0.03c-1.01-0.36-1.77-0.26-2.81-0.13
			c-1.04,0.13-2.14,0.01-3.18-0.01c-0.33-0.01-0.59,0.1-0.79,0.26c-0.07-0.08-0.13-0.16-0.19-0.24c-1.06-1.22-2.82,0.56-1.77,1.77
			c0.82,0.94,1.58,1.92,2.29,2.94c-0.05,0.24-0.03,0.51,0.09,0.79c1.11,2.58,2.89,4.87,4.44,7.2c0.41,0.62,1.1,0.68,1.62,0.43
			c0.13,0.04,0.27,0.08,0.43,0.08c0.16,0,0.3-0.03,0.43-0.07c0.15,0.07,0.33,0.11,0.53,0.11c0.1,0,0.19-0.01,0.28-0.03
			c0.12,0.04,0.25,0.06,0.39,0.06c0.67,0,1.06-0.44,1.17-0.94c0.03-0.03,0.06-0.06,0.09-0.1c1.19-1.6,2.29-3.24,3.33-4.94
			c0.17-0.29,0.21-0.57,0.17-0.82c0.01-0.01,0.02-0.02,0.03-0.04c0.82-1.37,1.67-2.72,2.51-4.08c0.1-0.16,0.15-0.31,0.17-0.46
			C179.92,456.42,179.68,454.8,178.38,454.8z"/>
		<rect x="160.46" y="319.42" class="st4" width="19.54" height="135.63"/>
		<line class="st5" x1="160.46" y1="455.05" x2="170.23" y2="472.58"/>
		<line class="st6" x1="180" y1="455.05" x2="170.23" y2="472.58"/>
		<line class="st5" x1="160.46" y1="330.76" x2="180" y2="330.76"/>
		<line class="st5" x1="160.46" y1="346.35" x2="180" y2="346.35"/>
		<line class="st7" x1="167.99" y1="468.56" x2="172.46" y2="468.58"/>
		<line class="st7" x1="165.35" y1="346.35" x2="165.35" y2="455.05"/>
		<line class="st7" x1="175.12" y1="346.35" x2="175.12" y2="455.05"/>
	</g>
	<g>
		
			<rect x="145.08" y="449.09" transform="matrix(4.486906e-11 -1 1 4.486906e-11 -299.9124 609.6067)" class="st0" width="19.54" height="11.34"/>
		
			<rect x="158.54" y="446.97" transform="matrix(4.486906e-11 -1 1 4.486906e-11 -286.4478 623.0713)" class="st1" width="19.54" height="15.59"/>
		
			<rect x="220.69" y="400.41" transform="matrix(4.486906e-11 -1 1 4.486906e-11 -224.3018 685.2172)" class="st2" width="19.54" height="108.7"/>
		<path d="M298.15,454.04c0,0.3,0.09,0.55,0.23,0.74c-0.11,0.17-0.17,0.39-0.17,0.64c0,1.4,1.9,1.58,2.39,0.54
			c0.44-0.15,0.8-0.53,0.8-1.13c0-0.61-0.36-0.98-0.8-1.13C300.26,452.44,298.15,452.56,298.15,454.04z"/>
		<path class="st3" d="M284.55,446.62c0,0.29,0.08,0.53,0.22,0.71c-0.01,0.08-0.02,0.16-0.02,0.25c0.02,1.7,0.2,3.38,0.5,5.05
			c-0.36,0.27-0.58,0.71-0.45,1.27c0.09,0.37,0.18,0.75,0.27,1.13c-0.01,0.02-0.02,0.04-0.03,0.07c-0.36,1.01-0.26,1.77-0.13,2.81
			c0.13,1.04,0.01,2.14-0.01,3.18c-0.01,0.33,0.1,0.59,0.26,0.79c-0.08,0.07-0.16,0.13-0.24,0.19c-1.22,1.06,0.56,2.82,1.77,1.77
			c0.94-0.82,1.92-1.58,2.94-2.29c0.24,0.05,0.51,0.03,0.79-0.09c2.58-1.11,4.87-2.89,7.2-4.44c0.62-0.41,0.68-1.1,0.43-1.62
			c0.04-0.13,0.08-0.27,0.08-0.43c0-0.16-0.03-0.3-0.07-0.43c0.07-0.15,0.11-0.33,0.11-0.53c0-0.1-0.01-0.19-0.03-0.28
			c0.04-0.12,0.06-0.25,0.06-0.39c0-0.67-0.44-1.06-0.94-1.17c-0.03-0.03-0.06-0.06-0.1-0.09c-1.6-1.19-3.24-2.29-4.94-3.33
			c-0.29-0.17-0.57-0.21-0.82-0.17c-0.01-0.01-0.02-0.02-0.04-0.03c-1.37-0.82-2.72-1.67-4.08-2.51c-0.16-0.1-0.31-0.15-0.46-0.17
			C286.18,445.07,284.55,445.32,284.55,446.62z"/>
		
			<rect x="207.22" y="386.94" transform="matrix(4.486906e-11 -1 1 4.486906e-11 -237.7664 671.7527)" class="st4" width="19.54" height="135.63"/>
		<line class="st5" x1="284.81" y1="464.53" x2="302.33" y2="454.76"/>
		<line class="st6" x1="284.81" y1="444.99" x2="302.33" y2="454.76"/>
		<line class="st5" x1="160.52" y1="464.53" x2="160.52" y2="444.99"/>
		<line class="st5" x1="176.11" y1="464.53" x2="176.11" y2="444.99"/>
		<line class="st7" x1="298.32" y1="457" x2="298.33" y2="452.53"/>
		<line class="st7" x1="176.11" y1="459.64" x2="284.81" y2="459.64"/>
		<line class="st7" x1="176.11" y1="449.87" x2="284.81" y2="449.87"/>
	</g>
	<g>
		
			<rect x="144.99" y="331.35" transform="matrix(4.486906e-11 -1 1 4.486906e-11 -182.2614 491.7875)" class="st0" width="19.54" height="11.34"/>
		
			<rect x="158.46" y="329.23" transform="matrix(4.486906e-11 -1 1 4.486906e-11 -168.7968 505.2521)" class="st1" width="19.54" height="15.59"/>
		
			<rect x="220.6" y="282.67" transform="matrix(4.486906e-11 -1 1 4.486906e-11 -106.6508 567.3981)" class="st2" width="19.54" height="108.7"/>
		<path d="M298.07,336.3c0,0.3,0.09,0.55,0.23,0.74c-0.11,0.17-0.17,0.39-0.17,0.64c0,1.4,1.9,1.58,2.39,0.54
			c0.44-0.15,0.8-0.53,0.8-1.13c0-0.61-0.36-0.98-0.8-1.13C300.17,334.71,298.07,334.82,298.07,336.3z"/>
		<path class="st3" d="M284.47,328.88c0,0.29,0.08,0.53,0.22,0.71c-0.01,0.08-0.02,0.16-0.02,0.25c0.02,1.7,0.2,3.38,0.5,5.05
			c-0.36,0.27-0.58,0.71-0.45,1.27c0.09,0.37,0.18,0.75,0.27,1.13c-0.01,0.02-0.02,0.04-0.03,0.07c-0.36,1.01-0.26,1.77-0.13,2.81
			c0.13,1.04,0.01,2.14-0.01,3.18c-0.01,0.33,0.1,0.59,0.26,0.79c-0.08,0.07-0.16,0.13-0.24,0.19c-1.22,1.06,0.56,2.82,1.77,1.77
			c0.94-0.82,1.92-1.58,2.94-2.29c0.24,0.05,0.51,0.03,0.79-0.09c2.58-1.11,4.87-2.89,7.2-4.44c0.62-0.41,0.68-1.1,0.43-1.62
			c0.04-0.13,0.08-0.27,0.08-0.43c0-0.16-0.03-0.3-0.07-0.43c0.07-0.15,0.11-0.33,0.11-0.53c0-0.1-0.01-0.19-0.03-0.28
			c0.04-0.12,0.06-0.25,0.06-0.39c0-0.67-0.44-1.06-0.94-1.17c-0.03-0.03-0.06-0.06-0.1-0.09c-1.6-1.19-3.24-2.29-4.94-3.33
			c-0.29-0.17-0.57-0.21-0.82-0.17c-0.01-0.01-0.02-0.02-0.04-0.03c-1.37-0.82-2.72-1.67-4.08-2.51c-0.16-0.1-0.31-0.15-0.46-0.17
			C286.09,327.33,284.47,327.58,284.47,328.88z"/>
		
			<rect x="207.14" y="269.21" transform="matrix(4.486906e-11 -1 1 4.486906e-11 -120.1154 553.9335)" class="st4" width="19.54" height="135.63"/>
		<line class="st5" x1="284.73" y1="346.79" x2="302.25" y2="337.02"/>
		<line class="st6" x1="284.73" y1="327.25" x2="302.25" y2="337.02"/>
		<line class="st5" x1="160.43" y1="346.79" x2="160.43" y2="327.25"/>
		<line class="st5" x1="176.02" y1="346.79" x2="176.02" y2="327.25"/>
		<line class="st7" x1="298.23" y1="339.26" x2="298.25" y2="334.79"/>
		<line class="st7" x1="176.02" y1="341.91" x2="284.73" y2="341.91"/>
		<line class="st7" x1="176.02" y1="332.14" x2="284.73" y2="332.14"/>
	</g>
	<g>
		<rect x="317.3" y="319.42" class="st0" width="19.54" height="11.34"/>
		<rect x="317.3" y="330.76" class="st1" width="19.54" height="15.59"/>
		<rect x="317.3" y="346.35" class="st2" width="19.54" height="108.7"/>
		<path d="M327.79,468.4c-0.3,0-0.55,0.09-0.74,0.23c-0.17-0.11-0.39-0.17-0.64-0.17c-1.4,0-1.58,1.9-0.54,2.39
			c0.15,0.44,0.53,0.8,1.13,0.8c0.61,0,0.98-0.36,1.13-0.8C329.39,470.5,329.28,468.4,327.79,468.4z"/>
		<path class="st3" d="M335.22,454.8c-0.29,0-0.53,0.08-0.71,0.22c-0.08-0.01-0.16-0.02-0.25-0.02c-1.7,0.02-3.38,0.2-5.05,0.5
			c-0.27-0.36-0.71-0.58-1.27-0.45c-0.37,0.09-0.75,0.18-1.13,0.27c-0.02-0.01-0.04-0.02-0.07-0.03c-1.01-0.36-1.77-0.26-2.81-0.13
			c-1.04,0.13-2.14,0.01-3.18-0.01c-0.33-0.01-0.59,0.1-0.79,0.26c-0.07-0.08-0.13-0.16-0.19-0.24c-1.06-1.22-2.82,0.56-1.77,1.77
			c0.82,0.94,1.58,1.92,2.29,2.94c-0.05,0.24-0.03,0.51,0.09,0.79c1.11,2.58,2.89,4.87,4.44,7.2c0.41,0.62,1.1,0.68,1.62,0.43
			c0.13,0.04,0.27,0.08,0.43,0.08c0.16,0,0.3-0.03,0.43-0.07c0.15,0.07,0.33,0.11,0.53,0.11c0.1,0,0.19-0.01,0.28-0.03
			c0.12,0.04,0.25,0.06,0.39,0.06c0.67,0,1.06-0.44,1.17-0.94c0.03-0.03,0.06-0.06,0.09-0.1c1.19-1.6,2.29-3.24,3.33-4.94
			c0.17-0.29,0.21-0.57,0.17-0.82c0.01-0.01,0.02-0.02,0.03-0.04c0.82-1.37,1.67-2.72,2.51-4.08c0.1-0.16,0.15-0.31,0.17-0.46
			C336.76,456.42,336.52,454.8,335.22,454.8z"/>
		<rect x="317.3" y="319.42" class="st4" width="19.54" height="135.63"/>
		<line class="st5" x1="317.3" y1="455.05" x2="327.07" y2="472.58"/>
		<line class="st6" x1="336.84" y1="455.05" x2="327.07" y2="472.58"/>
		<line class="st5" x1="317.3" y1="330.76" x2="336.84" y2="330.76"/>
		<line class="st5" x1="317.3" y1="346.35" x2="336.84" y2="346.35"/>
		<line class="st7" x1="324.83" y1="468.56" x2="329.3" y2="468.58"/>
		<line class="st7" x1="322.19" y1="346.35" x2="322.19" y2="455.05"/>
		<line class="st7" x1="331.96" y1="346.35" x2="331.96" y2="455.05"/>
	</g>
	<g>
		
			<rect x="437.74" y="342.57" transform="matrix(0.4226 0.9063 -0.9063 0.4226 574.002 -204.5169)" class="st0" width="19.54" height="11.34"/>
		
			<rect x="425.54" y="346.14" transform="matrix(0.4226 0.9063 -0.9063 0.4226 572.1133 -190.1716)" class="st1" width="19.54" height="15.59"/>
		
			<rect x="369.22" y="325.85" transform="matrix(0.4226 0.9063 -0.9063 0.4226 563.3965 -123.961)" class="st2" width="19.54" height="108.7"/>
		<path d="M317.94,409.46c-0.13-0.27-0.31-0.46-0.52-0.57c0.02-0.2-0.01-0.42-0.12-0.65c-0.59-1.27-2.4-0.63-2.39,0.52
			c-0.34,0.32-0.5,0.82-0.25,1.37c0.26,0.55,0.74,0.74,1.2,0.69C316.71,411.8,318.57,410.8,317.94,409.46z"/>
		<path class="st3" d="M333.4,410.44c-0.12-0.26-0.3-0.44-0.5-0.55c-0.02-0.08-0.05-0.15-0.08-0.23c-0.73-1.53-1.61-2.98-2.59-4.36
			c0.21-0.39,0.23-0.89-0.13-1.34c-0.24-0.3-0.48-0.6-0.72-0.91c0-0.03,0-0.05,0-0.08c-0.1-1.07-0.51-1.71-1.07-2.6
			c-0.55-0.88-0.92-1.93-1.34-2.89c-0.13-0.31-0.34-0.5-0.57-0.61c0.04-0.09,0.09-0.18,0.13-0.27c0.66-1.47-1.69-2.32-2.35-0.86
			c-0.51,1.14-1.07,2.24-1.69,3.32c-0.24,0.06-0.48,0.19-0.68,0.41c-1.87,2.1-3.19,4.68-4.65,7.07c-0.39,0.63-0.15,1.28,0.29,1.65
			c0.01,0.14,0.05,0.28,0.11,0.42c0.07,0.14,0.15,0.26,0.25,0.35c0,0.17,0.04,0.34,0.13,0.53c0.04,0.09,0.09,0.17,0.14,0.24
			c0.02,0.12,0.05,0.25,0.11,0.38c0.28,0.61,0.84,0.77,1.35,0.66c0.04,0.01,0.08,0.03,0.13,0.04c1.95,0.4,3.91,0.71,5.88,0.93
			c0.33,0.04,0.61-0.05,0.82-0.2c0.02,0,0.03,0.01,0.05,0.01c1.59,0.16,3.17,0.36,4.76,0.55c0.18,0.02,0.35,0,0.49-0.04
			C332.59,412.53,333.95,411.62,333.4,410.44z"/>
		
			<rect x="381.42" y="306.69" transform="matrix(0.4226 0.9063 -0.9063 0.4226 565.2852 -138.3062)" class="st4" width="19.54" height="135.63"/>
		<line class="st5" x1="325.6" y1="394.31" x2="313.85" y2="410.57"/>
		<line class="st6" x1="333.86" y1="412.02" x2="313.85" y2="410.57"/>
		<line class="st5" x1="438.25" y1="341.78" x2="446.5" y2="359.49"/>
		<line class="st5" x1="424.12" y1="348.37" x2="432.38" y2="366.08"/>
		<line class="st7" x1="316.54" y1="406.85" x2="318.42" y2="410.9"/>
		<line class="st7" x1="426.18" y1="352.8" x2="327.66" y2="398.74"/>
		<line class="st7" x1="430.31" y1="361.65" x2="331.79" y2="407.59"/>
	</g>
	<g>
		
			<rect x="301.88" y="331.38" transform="matrix(4.486906e-11 -1 1 4.486906e-11 -25.3982 648.6959)" class="st0" width="19.54" height="11.34"/>
		
			<rect x="315.34" y="329.25" transform="matrix(4.486906e-11 -1 1 4.486906e-11 -11.9336 662.1604)" class="st1" width="19.54" height="15.59"/>
		
			<rect x="377.49" y="282.7" transform="matrix(4.486906e-11 -1 1 4.486906e-11 50.2124 724.3064)" class="st2" width="19.54" height="108.7"/>
		<path d="M454.95,336.32c0,0.3,0.09,0.55,0.23,0.74c-0.11,0.17-0.17,0.39-0.17,0.64c0,1.4,1.9,1.58,2.39,0.54
			c0.44-0.15,0.8-0.53,0.8-1.13c0-0.61-0.36-0.98-0.8-1.13C457.06,334.73,454.95,334.84,454.95,336.32z"/>
		<path class="st3" d="M441.35,328.9c0,0.29,0.08,0.53,0.22,0.71c-0.01,0.08-0.02,0.16-0.02,0.25c0.02,1.7,0.2,3.38,0.5,5.05
			c-0.36,0.27-0.58,0.71-0.45,1.27c0.09,0.37,0.18,0.75,0.27,1.13c-0.01,0.02-0.02,0.04-0.03,0.07c-0.36,1.01-0.26,1.77-0.13,2.81
			c0.13,1.04,0.01,2.14-0.01,3.18c-0.01,0.33,0.1,0.59,0.26,0.79c-0.08,0.07-0.16,0.13-0.24,0.19c-1.22,1.06,0.56,2.82,1.77,1.77
			c0.94-0.82,1.92-1.58,2.94-2.29c0.24,0.05,0.51,0.03,0.79-0.09c2.58-1.11,4.87-2.89,7.2-4.44c0.62-0.41,0.68-1.1,0.43-1.62
			c0.04-0.13,0.08-0.27,0.08-0.43c0-0.16-0.03-0.3-0.07-0.43c0.07-0.15,0.11-0.33,0.11-0.53c0-0.1-0.01-0.19-0.03-0.28
			c0.04-0.12,0.06-0.25,0.06-0.39c0-0.67-0.44-1.06-0.94-1.17c-0.03-0.03-0.06-0.06-0.1-0.09c-1.6-1.19-3.24-2.29-4.94-3.33
			c-0.29-0.17-0.57-0.21-0.82-0.17c-0.01-0.01-0.02-0.02-0.04-0.03c-1.37-0.82-2.72-1.67-4.08-2.51c-0.16-0.1-0.31-0.15-0.46-0.17
			C442.98,327.36,441.35,327.6,441.35,328.9z"/>
		
			<rect x="364.02" y="269.23" transform="matrix(4.486906e-11 -1 1 4.486906e-11 36.7478 710.8418)" class="st4" width="19.54" height="135.63"/>
		<line class="st5" x1="441.61" y1="346.82" x2="459.13" y2="337.05"/>
		<line class="st6" x1="441.61" y1="327.28" x2="459.13" y2="337.05"/>
		<line class="st5" x1="317.32" y1="346.82" x2="317.32" y2="327.28"/>
		<line class="st5" x1="332.91" y1="346.82" x2="332.91" y2="327.28"/>
		<line class="st7" x1="455.12" y1="339.29" x2="455.13" y2="334.82"/>
		<line class="st7" x1="332.91" y1="341.93" x2="441.61" y2="341.93"/>
		<line class="st7" x1="332.91" y1="332.16" x2="441.61" y2="332.16"/>
	</g>
</g>
</svg>
